<svg width="362" height="232" viewBox="0 0 362 232" fill="none" xmlns="http://www.w3.org/2000/svg" xmlns:xlink="http://www.w3.org/1999/xlink">
<g opacity="0.8">
<path d="M72.684,43.465C76.407,31.207 79.871,23.576 83.071,20.567C91.934,12.239 104.188,16.771 106.793,17.421C115.945,19.707 112.969,4.66 120.821,1.602C126.054,-0.436 130.358,2.055 133.735,9.075C136.725,2.526 141.281,-0.474 147.404,0.061C156.589,0.871 159.804,33.184 172.425,26.111C185.05,19.035 200.526,17.418 207.138,27.932C208.567,30.207 209.114,26.678 218.832,14.628C228.552,2.575 238.242,-2.735 258.124,4.283C267.164,7.47 274.598,16.111 280.434,30.201C280.434,50.313 294.638,62.219 323.042,65.912C365.656,71.453 332.58,119.17 280.434,133.144C228.284,147.121 108.225,154.665 43.073,119.354C-0.362,95.819 9.508,70.521 72.681,43.465L72.684,43.465Z" clip-rule="evenodd" fill-rule="evenodd" fill="url(#pf_0_i_1_14650;71592_78364)"/>
</g>
<path d="M179.53,221.186C222.922,221.186 258.099,212.705 258.099,202.244C258.099,191.783 222.922,183.302 179.53,183.302C136.138,183.302 100.962,191.783 100.962,202.244C100.962,212.705 136.138,221.186 179.53,221.186Z" fill="url(#pf_0_i_1_14650;71592_78365)"/>
<g opacity="0.675">
<path d="M312.176,225.879C253.102,241.312 51.461,223.66 29.999,215.598C19.553,211.671 10.137,204.288 1.754,193.446C0.816,192.234 0.226,190.769 0.053,189.223C-0.12,187.676 0.131,186.11 0.776,184.705C1.421,183.301 2.435,182.115 3.7,181.285C4.965,180.455 6.43,180.015 7.925,180.016L360.282,180.016C367.596,200.303 351.56,215.589 312.176,225.879Z" clip-rule="evenodd" fill-rule="evenodd" fill="url(#pf_0_i_1_14650;71592_78366)"/>
</g>
<path d="M239.82,151.481L212.952,118.755C212.316,117.974 211.527,117.345 210.637,116.912C209.747,116.478 208.777,116.249 207.795,116.24L150.02,116.24C148.038,116.24 146.154,117.188 144.863,118.755L117.994,151.481L117.994,169.446L239.82,169.446L239.82,151.481Z" fill="url(#pf_0_i_1_14650;71592_78368)"/>
<path d="M232.207,170.106L208.69,141.603C208.121,140.93 207.421,140.393 206.635,140.027C205.849,139.661 204.997,139.476 204.136,139.483L153.678,139.483C151.946,139.483 150.253,140.232 149.124,141.603L125.607,170.106L125.607,185.761L232.207,185.761L232.207,170.106Z" fill="url(#pf_0_i_1_14650;71592_78369)"/>
<path d="M239.82,190.034C239.82,192.528 238.742,194.77 237.041,196.273L236.696,196.566C235.347,197.631 233.7,198.206 232.008,198.203L125.81,198.203C124.85,198.203 123.932,198.022 123.084,197.689L122.663,197.513C121.273,196.869 120.093,195.82 119.265,194.492C118.436,193.164 117.995,191.614 117.994,190.031L117.994,151.676L147.552,151.676C150.817,151.676 153.448,154.475 153.448,157.869L153.448,157.913C153.448,161.311 156.109,164.051 159.374,164.051L198.441,164.051C200.01,164.049 201.515,163.4 202.625,162.245C203.736,161.091 204.362,159.524 204.367,157.89C204.367,154.481 207,151.676 210.262,151.676L239.823,151.676L239.82,190.034Z" fill="url(#pf_0_i_1_14650;71592_78370)"/>
<defs>
<linearGradient id="pf_0_i_1_14650;71592_78364" x1="187.197" y1="108.042" x2="187.197" y2="-25.537" gradientUnits="userSpaceOnUse">
<stop stop-color="#DEDEDE" stop-opacity="0"/>
<stop offset="1" stop-color="#A9A9A9" stop-opacity="0.3"/>
</linearGradient>
<linearGradient id="pf_0_i_1_14650;71592_78365" x1="171.343" y1="221.186" x2="171.343" y2="183.302" gradientUnits="userSpaceOnUse">
<stop stop-color="#FFFFFF" stop-opacity="0"/>
<stop offset="1" stop-color="#96A1C5" stop-opacity="0.373"/>
</linearGradient>
<linearGradient id="pf_0_i_1_14650;71592_78366" x1="181" y1="232" x2="181" y2="169.788" gradientUnits="userSpaceOnUse">
<stop stop-color="#FFFFFF" stop-opacity="0"/>
<stop offset="1" stop-color="#919191" stop-opacity="0.15"/>
</linearGradient>
<linearGradient id="pf_0_i_1_14650;71592_78368" x1="178.907" y1="116.24" x2="178.907" y2="140.156" gradientUnits="userSpaceOnUse">
<stop stop-color="#5389F5"/>
<stop offset="1" stop-color="#416FDC"/>
</linearGradient>
<linearGradient id="pf_0_i_1_14650;71592_78369" x1="193.133" y1="185.762" x2="193.133" y2="137.023" gradientUnits="userSpaceOnUse">
<stop stop-color="#DCE9FF"/>
<stop offset="1" stop-color="#B6CFFF"/>
</linearGradient>
<linearGradient id="pf_0_i_1_14650;71592_78370" x1="178.909" y1="151.676" x2="178.909" y2="198.203" gradientUnits="userSpaceOnUse">
<stop stop-color="#7CA5F7"/>
<stop offset="1" stop-color="#C4D6FC"/>
</linearGradient>
</defs>
</svg>
