<svg width="226" height="138" viewBox="0 0 226 138" fill="none" xmlns="http://www.w3.org/2000/svg" xmlns:xlink="http://www.w3.org/1999/xlink">
<path d="M162.292,56.009C161.969,56.04 161.77,55.789 161.519,55.661C154.17,52.03 146.744,48.584 138.95,46.013C133.619,44.251 128.19,42.874 122.649,41.942C119.162,41.353 115.659,40.923 112.131,40.631C108.131,40.298 104.121,40.18 100.111,40.231C96.936,40.272 93.782,40.59 90.637,41.035C81.916,42.264 73.461,44.584 65.119,47.344C56.265,50.269 47.605,53.705 39.053,57.402C31.735,60.567 24.463,63.824 17.165,67.03C13.8,68.51 10.421,69.959 6.948,71.168C5.607,71.634 4.255,72.069 2.846,72.294C2.345,72.376 1.827,72.407 1.325,72.366C0.363,72.289 -0.052,71.767 0.148,70.814C0.271,70.22 0.496,69.621 0.783,69.083C1.525,67.706 2.304,66.349 3.118,65.007C6.943,58.703 11.301,52.773 16.018,47.109C22.522,39.304 29.645,32.109 37.46,25.616C44.829,19.496 52.685,14.108 61.217,9.73C68.043,6.222 75.151,3.457 82.618,1.644C86.269,0.758 89.961,0.118 93.7,-0.261C97.008,-0.594 100.316,-0.732 103.64,-0.625C103.64,0.02 103.886,0.589 104.203,1.121C104.782,2.089 105.361,3.062 106.001,3.989C108.198,7.175 110.646,10.16 113.17,13.089C119.505,20.448 126.321,27.336 133.537,33.83C140.184,39.811 147.133,45.409 154.528,50.443C156.879,52.04 159.286,53.546 161.667,55.093C161.754,55.272 161.892,55.364 162.097,55.344C162.184,55.405 162.271,55.461 162.358,55.518L162.353,55.513C162.348,55.666 162.338,55.825 162.333,55.979L162.302,56.009L162.292,56.009Z" fill="#FFFFFF"/>
<path d="M161.662,55.092C159.281,53.545 156.869,52.04 154.523,50.442C147.129,45.408 140.179,39.81 133.532,33.829C126.316,27.335 119.5,20.448 113.165,13.089C110.646,10.159 108.193,7.174 105.996,3.988C105.356,3.061 104.772,2.088 104.198,1.121C103.881,0.588 103.63,0.014 103.635,-0.626C104.47,-0.651 105.31,-0.738 106.129,-0.482C106.262,-0.441 106.416,-0.452 106.564,-0.446C107.84,-0.436 109.089,-0.196 110.349,-0.047C111.501,0.086 112.653,0.219 113.795,0.434C115.291,0.711 116.791,0.967 118.287,1.274C119.848,1.597 121.41,1.935 122.962,2.319C126.808,3.282 130.598,4.444 134.351,5.714C138.177,7.01 141.951,8.444 145.69,9.975C148.516,11.132 151.313,12.377 154.109,13.606C156.372,14.604 158.62,15.639 160.879,16.653C163.434,17.8 166.005,18.916 168.55,20.084C172.022,21.677 175.535,23.177 179.1,24.555C181.645,25.538 184.216,26.46 186.853,27.161C188.118,27.499 189.373,27.883 190.653,28.114C192.041,28.365 193.423,28.693 194.857,28.672C195.431,28.662 196.009,28.836 196.588,28.846C198.524,28.877 200.429,28.621 202.293,28.109C202.831,27.96 203.174,28.073 203.568,28.426C204.567,29.328 205.601,30.188 206.62,31.064C206.677,31.11 206.728,31.161 206.779,31.212C208.802,33.209 210.978,35.043 212.909,37.132C214.02,38.336 215.07,39.59 216.182,40.789C217.298,41.987 218.297,43.288 219.29,44.583C221.093,46.924 222.701,49.392 223.93,52.091C224.534,53.417 225.015,54.795 225.282,56.224C225.41,56.93 225.318,57.678 225.364,58.405C225.492,60.505 224.626,62.226 223.32,63.767C223.064,64.064 222.711,64.284 222.399,64.53C221.42,65.293 220.396,65.959 219.218,66.409C217.277,67.147 215.316,67.782 213.242,68.053C212.167,68.197 211.086,68.35 210.011,68.499C208.741,68.673 207.455,68.56 206.206,68.729C204.859,68.914 203.517,68.868 202.175,68.878C201.673,68.878 201.166,68.786 200.659,68.734C200.516,68.719 200.368,68.683 200.224,68.699C198.944,68.791 197.684,68.535 196.419,68.437C195.374,68.355 194.33,68.166 193.306,67.951C191.457,67.567 189.613,67.172 187.785,66.712C185.383,66.107 183.038,65.329 180.728,64.438C179.1,63.808 177.471,63.178 175.858,62.512C174.511,61.959 173.185,61.355 171.858,60.761C171.597,60.643 171.362,60.464 171.116,60.31C169.994,59.685 168.873,59.05 167.741,58.436C166.891,57.975 166.025,57.54 165.17,57.094C164.592,56.751 164.008,56.413 163.429,56.07C163.24,55.957 163.05,55.87 162.83,55.962C162.768,55.706 162.64,55.527 162.349,55.532L162.354,55.537C162.267,55.481 162.18,55.42 162.092,55.363C161.949,55.281 161.806,55.194 161.662,55.112L161.662,55.092Z" fill="#CFCFCF"/>
<path d="M83.509,106.426C83.56,102.784 83.806,99.405 84.144,96.035C84.472,92.737 84.774,89.434 85.138,86.141C85.486,83.022 85.65,79.898 85.491,76.759C85.424,75.52 85.327,74.286 85.24,73.051C85.143,71.633 85.025,70.219 84.943,68.801C84.846,67.121 84.943,65.452 85.26,63.798C85.803,61.007 87.345,58.958 89.854,57.627C91.38,56.817 93.014,56.326 94.699,55.998C96.778,55.594 98.877,55.343 100.993,55.317C103.215,55.291 105.443,55.266 107.66,55.353C110.359,55.455 113.037,55.788 115.618,56.643C116.376,56.894 117.124,57.191 117.841,57.55C120.658,58.963 122.235,61.273 122.711,64.371C123.029,66.44 122.957,68.514 122.819,70.588C122.619,73.604 122.245,76.616 122.296,79.642C122.327,81.424 122.46,83.207 122.614,84.984C122.839,87.524 123.136,90.053 123.377,92.594C123.648,95.456 123.945,98.324 124.13,101.192C124.334,104.393 124.483,107.593 124.329,110.804C124.227,112.95 124.109,115.096 123.807,117.226C123.341,120.483 122.598,123.663 121.185,126.654C120.811,127.443 120.396,128.216 119.935,128.953C117.569,132.748 114.215,135.216 109.862,136.276C105.637,137.306 101.412,137.275 97.223,136.067C93.475,134.986 90.515,132.789 88.318,129.573C86.797,127.356 85.793,124.903 85.086,122.327C84.359,119.684 83.965,116.99 83.724,114.261C83.489,111.567 83.504,108.873 83.509,106.426Z" fill="#FFFFFF"/>
</svg>
