<svg width="42" height="38" viewBox="0 0 42 38" fill="none" xmlns="http://www.w3.org/2000/svg" xmlns:xlink="http://www.w3.org/1999/xlink">
<path d="M20.68,12.348L26.692,18.361L26.721,18.046C26.721,14.887 24.154,12.32 20.995,12.32L20.68,12.348Z" fill="#000000"/>
<path d="M20.995,8.502C26.263,8.502 30.539,12.778 30.539,18.046C30.539,19.277 30.291,20.451 29.861,21.529L35.444,27.112C38.326,24.707 40.597,21.596 42,18.046C38.689,9.667 30.548,3.731 20.995,3.731C18.323,3.731 15.766,4.208 13.389,5.067L17.512,9.18C18.59,8.76 19.764,8.502 20.995,8.502Z" fill="#000000"/>
<path d="M1.909,3.301L6.26,7.653L7.129,8.522C3.98,10.984 1.489,14.257 0,18.046C3.302,26.425 11.452,32.361 20.995,32.361C23.954,32.361 26.778,31.788 29.365,30.748L30.176,31.559L35.74,37.132L38.173,34.708L4.342,0.868L1.909,3.301ZM12.464,13.847L15.412,16.796C15.327,17.206 15.269,17.616 15.269,18.046C15.269,21.205 17.836,23.772 20.995,23.772C21.425,23.772 21.835,23.714 22.236,23.629L25.185,26.577C23.915,27.207 22.503,27.589 20.995,27.589C15.727,27.589 11.452,23.314 11.452,18.046C11.452,16.538 11.834,15.125 12.464,13.847Z" fill="#000000"/>
</svg>
