<svg width="42" height="40" viewBox="0 0 42 40" fill="none" xmlns="http://www.w3.org/2000/svg" xmlns:xlink="http://www.w3.org/1999/xlink">
<path d="M20.287,33.51C16.407,33.51 12.527,32.894 8.846,31.662C7.448,31.179 6.382,30.196 5.916,28.914C5.433,27.632 5.599,26.216 6.365,24.951L8.28,21.77C8.68,21.104 9.046,19.772 9.046,18.989L9.046,14.176C9.046,7.982 14.092,2.936 20.287,2.936C26.482,2.936 31.528,7.982 31.528,14.176L31.528,18.989C31.528,19.755 31.894,21.104 32.294,21.787L34.192,24.951C34.908,26.15 35.041,27.599 34.558,28.914C34.075,30.23 33.026,31.229 31.711,31.662C28.047,32.894 24.167,33.51 20.287,33.51ZM20.287,5.434C15.474,5.434 11.544,9.347 11.544,14.176L11.544,18.989C11.544,20.205 11.045,22.003 10.428,23.052L8.513,26.233C8.147,26.849 8.047,27.499 8.264,28.048C8.463,28.614 8.963,29.047 9.646,29.28C16.607,31.612 23.984,31.612 30.945,29.28C31.544,29.081 32.01,28.631 32.227,28.032C32.443,27.432 32.393,26.783 32.06,26.233L30.145,23.052C29.513,21.97 29.03,20.188 29.03,18.972L29.03,14.176C29.03,9.347 25.116,5.434 20.287,5.434Z" transform="rotate(0 20.244 18.223)" fill="#9E9E9E"/>
<path d="M23.385,5.884C23.268,5.884 23.152,5.867 23.035,5.834C22.552,5.7 22.086,5.6 21.636,5.534C20.221,5.351 18.855,5.451 17.573,5.834C17.107,5.983 16.607,5.834 16.291,5.484C15.974,5.134 15.874,4.635 16.058,4.185C16.74,2.436 18.406,1.287 20.304,1.287C22.202,1.287 23.868,2.42 24.551,4.185C24.717,4.635 24.634,5.134 24.317,5.484C24.068,5.75 23.718,5.884 23.385,5.884Z" transform="rotate(0 20.3 3.589)" fill="#9E9E9E"/>
<path d="M20.287,37.307C18.639,37.307 17.04,36.641 15.874,35.475C14.709,34.31 14.042,32.711 14.042,31.063L16.54,31.063C16.54,32.045 16.94,33.011 17.639,33.71C18.339,34.41 19.305,34.809 20.287,34.809C22.352,34.809 24.034,33.127 24.034,31.063L26.532,31.063C26.532,34.51 23.734,37.307 20.287,37.307Z" transform="rotate(0 20.287 34.185)" fill="#9E9E9E"/>
<circle cx="28.58" cy="7.649" r="4.996" transform="rotate(0 28.58 7.649)" fill="#0038FF" stroke="#000000" stroke-width="0.833" stroke-miterlimit="3.999327"/>
</svg>
