<svg width="42" height="40" viewBox="0 0 42 40" fill="none" xmlns="http://www.w3.org/2000/svg" xmlns:xlink="http://www.w3.org/1999/xlink">
<path d="M20.286,33.51C16.406,33.51 12.526,32.894 8.845,31.662C7.447,31.179 6.381,30.196 5.915,28.914C5.432,27.632 5.598,26.216 6.364,24.951L8.279,21.77C8.679,21.104 9.045,19.772 9.045,18.989L9.045,14.177C9.045,7.982 14.091,2.936 20.286,2.936C26.481,2.936 31.527,7.982 31.527,14.177L31.527,18.989C31.527,19.755 31.893,21.104 32.293,21.787L34.191,24.951C34.907,26.15 35.04,27.599 34.557,28.914C34.074,30.23 33.025,31.229 31.71,31.662C28.046,32.894 24.166,33.51 20.286,33.51ZM20.286,5.434C15.473,5.434 11.543,9.347 11.543,14.177L11.543,18.989C11.543,20.205 11.044,22.003 10.427,23.052L8.512,26.233C8.146,26.849 8.046,27.499 8.263,28.048C8.462,28.614 8.962,29.047 9.645,29.28C16.606,31.612 23.983,31.612 30.944,29.28C31.543,29.081 32.009,28.631 32.226,28.032C32.442,27.432 32.392,26.783 32.059,26.233L30.144,23.052C29.512,21.97 29.029,20.188 29.029,18.973L29.029,14.177C29.029,9.347 25.115,5.434 20.286,5.434Z" transform="rotate(0 20.243 18.223)" fill="#9E9E9E"/>
<path d="M23.384,5.883C23.268,5.883 23.151,5.867 23.035,5.833C22.552,5.7 22.085,5.6 21.636,5.534C20.22,5.351 18.855,5.45 17.573,5.833C17.106,5.983 16.607,5.833 16.29,5.484C15.974,5.134 15.874,4.634 16.057,4.185C16.74,2.436 18.405,1.287 20.304,1.287C22.202,1.287 23.867,2.42 24.55,4.185C24.717,4.634 24.633,5.134 24.317,5.484C24.067,5.75 23.717,5.883 23.384,5.883Z" transform="rotate(0 20.3 3.589)" fill="#9E9E9E"/>
<path d="M20.287,37.307C18.638,37.307 17.039,36.641 15.874,35.475C14.708,34.31 14.042,32.711 14.042,31.062L16.54,31.062C16.54,32.045 16.94,33.011 17.639,33.71C18.338,34.41 19.304,34.809 20.287,34.809C22.352,34.809 24.034,33.127 24.034,31.062L26.532,31.062C26.532,34.51 23.734,37.307 20.287,37.307Z" transform="rotate(0 20.287 34.185)" fill="#9E9E9E"/>
<circle cx="28.58" cy="7.649" r="4.996" transform="rotate(0 28.58 7.649)" fill="#0038FF" stroke="#000000" stroke-width="0.833" stroke-miterlimit="3.999327"/>
</svg>
