<svg width="20" height="20" viewBox="0 0 20 20" fill="none" xmlns="http://www.w3.org/2000/svg" xmlns:xlink="http://www.w3.org/1999/xlink">
<path d="M10.804,-0.501L9.197,-0.501C9.054,-0.501 8.983,-0.43 8.983,-0.287L8.983,8.124L1.001,8.124C0.858,8.124 0.787,8.195 0.787,8.338L0.787,9.945C0.787,10.088 0.858,10.16 1.001,10.16L8.983,10.16L8.983,18.57C8.983,18.713 9.054,18.785 9.197,18.785L10.804,18.785C10.947,18.785 11.018,18.713 11.018,18.57L11.018,10.16L19.001,10.16C19.144,10.16 19.215,10.088 19.215,9.945L19.215,8.338C19.215,8.195 19.144,8.124 19.001,8.124L11.018,8.124L11.018,-0.287C11.018,-0.43 10.947,-0.501 10.804,-0.501Z" transform="rotate(-79.783 10.001 9.142)" fill="#000000" fill-opacity="0.85"/>
</svg>
