<svg width="24" height="26" viewBox="0 0 24 26" fill="none" xmlns="http://www.w3.org/2000/svg" xmlns:xlink="http://www.w3.org/1999/xlink">
<path d="M23,1.748L17.75,1.748L17.75,-0.252C17.75,-0.389 17.637,-0.502 17.5,-0.502L15.75,-0.502C15.613,-0.502 15.5,-0.389 15.5,-0.252L15.5,1.748L7.5,1.748L7.5,-0.252C7.5,-0.389 7.387,-0.502 7.25,-0.502L5.5,-0.502C5.363,-0.502 5.25,-0.389 5.25,-0.252L5.25,1.748L0,1.748C-0.553,1.748 -1,2.195 -1,2.748L-1,23.498C-1,24.051 -0.553,24.498 0,24.498L23,24.498C23.553,24.498 24,24.051 24,23.498L24,2.748C24,2.195 23.553,1.748 23,1.748ZM21.75,22.248L1.25,22.248L1.25,10.373L21.75,10.373L21.75,22.248ZM1.25,8.248L1.25,3.998L5.25,3.998L5.25,5.498C5.25,5.636 5.363,5.748 5.5,5.748L7.25,5.748C7.387,5.748 7.5,5.636 7.5,5.498L7.5,3.998L15.5,3.998L15.5,5.498C15.5,5.636 15.613,5.748 15.75,5.748L17.5,5.748C17.637,5.748 17.75,5.636 17.75,5.498L17.75,3.998L21.75,3.998L21.75,8.248L1.25,8.248Z" fill="#000000" fill-opacity="0.25"/>
</svg>
