<svg width="22" height="24" viewBox="0 0 22 24" fill="none" xmlns="http://www.w3.org/2000/svg" xmlns:xlink="http://www.w3.org/1999/xlink">
<path d="M11.937,0.751L10.062,0.751C9.896,0.751 9.812,0.835 9.812,1.001L9.812,10.814L0.5,10.814C0.334,10.814 0.25,10.897 0.25,11.064L0.25,12.939C0.25,13.106 0.334,13.189 0.5,13.189L9.812,13.189L9.812,23.001C9.812,23.168 9.896,23.251 10.062,23.251L11.937,23.251C12.104,23.251 12.187,23.168 12.187,23.001L12.187,13.189L21.5,13.189C21.667,13.189 21.75,13.106 21.75,12.939L21.75,11.064C21.75,10.897 21.667,10.814 21.5,10.814L12.187,10.814L12.187,1.001C12.187,0.835 12.104,0.751 11.937,0.751Z" fill="#000000" fill-opacity="0.85"/>
</svg>
