<svg width="30" height="30" viewBox="0 0 30 30" fill="none" xmlns="http://www.w3.org/2000/svg" xmlns:xlink="http://www.w3.org/1999/xlink">
<path d="M28.204,26.238L18.929,16.963C20.368,15.103 21.147,12.828 21.147,10.435C21.147,7.57 20.029,4.885 18.008,2.86C15.986,0.835 13.293,-0.28 10.433,-0.28C7.572,-0.28 4.879,0.838 2.858,2.86C0.833,4.881 -0.282,7.57 -0.282,10.435C-0.282,13.295 0.836,15.988 2.858,18.01C4.879,20.035 7.568,21.149 10.433,21.149C12.825,21.149 15.097,20.37 16.958,18.935L26.232,28.206C26.26,28.233 26.292,28.255 26.328,28.27C26.363,28.284 26.401,28.292 26.44,28.292C26.478,28.292 26.516,28.284 26.552,28.27C26.587,28.255 26.62,28.233 26.647,28.206L28.204,26.653C28.231,26.625 28.253,26.593 28.267,26.558C28.282,26.522 28.29,26.484 28.29,26.445C28.29,26.407 28.282,26.369 28.267,26.333C28.253,26.298 28.231,26.265 28.204,26.238ZM16.09,16.092C14.575,17.603 12.568,18.435 10.433,18.435C8.297,18.435 6.29,17.603 4.775,16.092C3.265,14.578 2.433,12.57 2.433,10.435C2.433,8.299 3.265,6.288 4.775,4.778C6.29,3.267 8.297,2.435 10.433,2.435C12.568,2.435 14.579,3.263 16.09,4.778C17.6,6.292 18.433,8.299 18.433,10.435C18.433,12.57 17.6,14.581 16.09,16.092Z" fill="#000000" fill-opacity="0.45"/>
</svg>
