<svg width="20" height="20" viewBox="0 0 20 20" fill="none" xmlns="http://www.w3.org/2000/svg" xmlns:xlink="http://www.w3.org/1999/xlink">
<path d="M10.803,0.358L9.196,0.358C9.053,0.358 8.982,0.43 8.982,0.573L8.982,8.983L1,8.983C0.858,8.983 0.786,9.055 0.786,9.198L0.786,10.805C0.786,10.948 0.858,11.019 1,11.019L8.982,11.019L8.982,19.43C8.982,19.573 9.053,19.644 9.196,19.644L10.803,19.644C10.946,19.644 11.018,19.573 11.018,19.43L11.018,11.019L19,11.019C19.143,11.019 19.215,10.948 19.215,10.805L19.215,9.198C19.215,9.055 19.143,8.983 19,8.983L11.018,8.983L11.018,0.573C11.018,0.43 10.946,0.358 10.803,0.358Z" fill="#000000" fill-opacity="0.85"/>
</svg>
