<svg width="22" height="24" viewBox="0 0 22 24" fill="none" xmlns="http://www.w3.org/2000/svg" xmlns:xlink="http://www.w3.org/1999/xlink">
<path d="M10.937,0.752L9.062,0.752C8.896,0.752 8.812,0.835 8.812,1.002L8.812,10.814L-0.5,10.814C-0.666,10.814 -0.75,10.898 -0.75,11.064L-0.75,12.939C-0.75,13.106 -0.666,13.189 -0.5,13.189L8.812,13.189L8.812,23.002C8.812,23.169 8.896,23.252 9.062,23.252L10.937,23.252C11.104,23.252 11.187,23.169 11.187,23.002L11.187,13.189L20.5,13.189C20.667,13.189 20.75,13.106 20.75,12.939L20.75,11.064C20.75,10.898 20.667,10.814 20.5,10.814L11.187,10.814L11.187,1.002C11.187,0.835 11.104,0.752 10.937,0.752Z" fill="#FFFFFF"/>
</svg>
