<svg width="28" height="26" viewBox="0 0 28 26" fill="none" xmlns="http://www.w3.org/2000/svg" xmlns:xlink="http://www.w3.org/1999/xlink">
<path d="M27.313,10.642L6.086,10.642L18.791,-0.215C18.994,-0.39 18.871,-0.715 18.602,-0.715L15.391,-0.715C15.25,-0.715 15.116,-0.665 15.01,-0.576L1.301,11.135C1.175,11.242 1.074,11.375 1.005,11.524C0.936,11.672 0.901,11.834 0.901,11.998C0.901,12.161 0.936,12.323 1.005,12.472C1.074,12.621 1.175,12.753 1.301,12.86L15.09,24.642C15.145,24.689 15.21,24.714 15.279,24.714L18.598,24.714C18.867,24.714 18.99,24.385 18.787,24.214L6.086,13.357L27.313,13.357C27.472,13.357 27.603,13.228 27.603,13.071L27.603,10.928C27.603,10.771 27.472,10.642 27.313,10.642Z" fill="#000000" fill-opacity="0.85"/>
</svg>
