<svg width="112" height="188" viewBox="0 0 112 188" fill="none" xmlns="http://www.w3.org/2000/svg" xmlns:xlink="http://www.w3.org/1999/xlink">
<path d="M111.909,82.761C111.965,85.363 111.458,87.857 110.72,90.305C109.742,93.562 108.334,96.644 106.706,99.62C103.822,104.879 100.335,109.729 96.571,114.384C94.026,117.533 91.352,120.565 88.597,123.53C85.023,127.381 81.31,131.089 77.49,134.694C71.605,140.251 65.501,145.561 59.228,150.677C48.934,159.066 38.272,166.952 27.129,174.173C22.571,177.128 17.931,179.944 13.112,182.459C10.757,183.688 8.365,184.855 5.835,185.706C4.97,185.997 4.104,186.274 3.188,186.356C3.044,186.366 2.901,186.422 2.757,186.417C1.195,186.356 0.893,185.68 1.221,184.476C1.4,183.821 1.733,183.191 2.081,182.597C3.254,180.61 4.734,178.853 6.24,177.117C9.205,173.707 12.211,170.327 15.13,166.88C18.735,162.625 22.228,158.277 25.633,153.863C29.956,148.265 34.119,142.555 38.078,136.691C41.811,131.161 45.324,125.497 48.54,119.648C51.618,114.056 54.383,108.315 56.585,102.319C57.84,98.898 58.926,95.426 59.643,91.846C60.016,89.992 60.324,88.128 60.493,86.238C60.621,84.856 60.667,83.478 60.657,82.09C60.636,78.685 60.088,75.351 59.243,72.058C58.076,67.521 56.288,63.224 54.143,59.066C51.997,54.913 49.508,50.974 46.784,47.18C43.358,42.407 39.645,37.87 35.635,33.573C33.494,31.284 31.359,28.984 29.131,26.782C25.295,22.988 21.327,19.336 17.23,15.818C13.717,12.802 10.116,9.893 6.47,7.041C5.006,5.893 3.556,4.726 2.291,3.358C1.825,2.851 1.37,2.314 1.006,1.735C0.417,0.798 0.699,0.25 1.784,0.04C2.599,-0.119 3.387,0.101 4.166,0.24C6.716,0.706 9.159,1.561 11.586,2.452C16.067,4.096 20.461,5.965 24.763,8.024C28.87,9.99 32.967,11.982 37.012,14.072C45.17,18.297 53.123,22.88 60.897,27.781C67.78,32.119 74.484,36.702 80.936,41.659C84.321,44.261 87.624,46.949 90.804,49.797C92.981,51.743 95.122,53.719 97.15,55.814C100.652,59.435 103.94,63.234 106.67,67.485C108.211,69.887 109.538,72.391 110.511,75.08C111.407,77.563 111.985,80.108 111.898,82.751L111.909,82.761Z" fill="#FFFFFF"/>
</svg>
